<svg width="893" height="316" viewBox="0 0 893 316" fill="none" xmlns="http://www.w3.org/2000/svg">
<path fill-rule="evenodd" clip-rule="evenodd" d="M575.404 192.538C660.604 192.538 745.805 192.538 831.007 192.538C834.928 192.538 834.947 192.538 834.923 196.368C834.891 201.907 835.573 201.244 830.018 201.244C660.041 201.252 490.065 201.25 320.089 201.25C319.322 201.25 318.451 201.479 317.817 201.188C317.076 200.849 316.53 200.068 315.927 199.451C315.841 199.364 315.91 199.122 315.913 198.952C316.043 191.202 314.822 192.562 322.101 192.559C406.534 192.525 490.97 192.538 575.404 192.538Z" fill="#03989E"/>
<path fill-rule="evenodd" clip-rule="evenodd" d="M669.218 270.768C678.029 269.286 684.78 261.812 684.805 253.039C684.175 253.039 683.559 253.053 682.954 253.067C681.622 253.096 680.344 253.125 679.079 253.002C676.862 252.787 675.869 253.686 675.453 255.813C674.816 259.067 673.159 261.804 669.93 262.956C662.852 265.48 654.425 264.538 651.821 254.95C649.671 247.041 649.58 238.868 651.807 231.009C654.303 222.196 660.572 220.842 667.67 221.949C672.613 222.719 674.744 226.455 675.885 230.958C676.072 231.695 676.774 232.818 677.312 232.862C679.153 233.011 681.008 232.99 682.923 232.968C683.618 232.96 684.322 232.952 685.035 232.952C684.748 228.908 683.598 225.485 681.439 222.464C676.331 215.319 668.91 213.706 660.846 214.602C652.224 215.562 646.311 220.476 643.328 228.622C640.788 235.561 640.851 242.771 641.686 250.01C643.459 265.414 653.959 273.335 669.218 270.768ZM778.955 230.37C778.897 229.762 778.839 229.155 778.79 228.547L779.113 228.481L779.114 228.481L779.116 228.481C779.325 228.438 779.534 228.395 779.744 228.352C779.901 228.734 780.061 229.116 780.22 229.497L780.221 229.498L780.221 229.498C780.538 230.255 780.855 231.011 781.146 231.776C782.273 234.716 783.405 237.655 784.537 240.593L784.539 240.598C788.047 249.705 791.555 258.813 794.915 267.973C795.812 270.414 797.319 270.444 799.213 270.481L799.324 270.483L799.456 270.486C801.401 270.53 802.674 270.242 803.496 268.033C807.168 258.148 810.97 248.311 814.772 238.474L814.772 238.473L814.773 238.47L814.787 238.435L814.798 238.405C815.734 235.985 816.669 233.565 817.602 231.144C817.85 230.502 818.163 229.885 818.475 229.268L818.476 229.267C818.625 228.973 818.774 228.678 818.916 228.381C819.398 230.929 819.456 233.294 819.389 235.655C819.292 239.108 819.177 242.561 819.062 246.013V246.014V246.014L819.062 246.02C818.866 251.912 818.671 257.804 818.558 263.698C818.42 270.867 818.528 270.861 825.616 270.474L825.678 270.471C827.128 270.392 827.826 269.987 827.824 268.388C827.787 251.28 827.785 234.172 827.824 217.064C827.829 215.449 827.133 214.985 825.675 215.014L825.296 215.022C822.955 215.068 820.608 215.114 818.272 214.995C816.373 214.899 815.43 215.568 814.747 217.426C810.787 228.183 806.733 238.904 802.678 249.625L802.677 249.63L802.674 249.636L802.659 249.677C802.003 251.411 801.348 253.144 800.692 254.878C800.457 255.501 800.155 256.1 799.788 256.829L799.788 256.83L799.787 256.83L799.786 256.832L799.786 256.833C799.596 257.211 799.387 257.624 799.161 258.095C798.933 257.562 798.73 257.103 798.549 256.691C798.217 255.938 797.955 255.342 797.725 254.734C796.761 252.17 795.796 249.606 794.83 247.042L794.819 247.012L794.808 246.982C791.142 237.248 787.475 227.513 783.885 217.75C783.116 215.654 782.023 214.77 779.776 214.987C777.838 215.176 775.853 215.159 773.91 214.992C771.556 214.791 770.861 215.66 770.874 218.02C770.924 225.895 770.921 233.769 770.917 241.644C770.913 249.175 770.909 256.706 770.952 264.237C770.959 265.408 770.923 266.36 770.894 267.133C770.834 268.687 770.803 269.519 771.202 269.962C771.663 270.473 772.696 270.469 774.918 270.458H774.919C775.672 270.455 776.562 270.451 777.612 270.466C779.254 270.491 779.865 269.861 779.833 268.202C779.709 262.151 779.608 256.098 779.507 250.045V250.044V250.043C779.42 244.784 779.333 239.525 779.229 234.267C779.205 232.967 779.08 231.669 778.955 230.37ZM749.173 270.432C749.933 270.423 750.714 270.414 751.522 270.414C751.408 270.035 751.311 269.693 751.221 269.377C751.046 268.76 750.9 268.243 750.709 267.742C744.628 251.705 738.543 235.67 732.445 219.64C730.735 215.149 730.661 215.146 726.086 214.984L725.646 214.968C723.283 214.883 722.213 215.69 721.4 217.887C717.423 228.621 713.368 239.327 709.313 250.032L709.313 250.032L709.313 250.033L709.312 250.036L709.31 250.04C707.802 254.022 706.294 258.003 704.79 261.986C704.116 263.775 703.456 265.569 702.751 267.489L702.751 267.489C702.401 268.44 702.04 269.423 701.66 270.45C702.491 270.45 703.281 270.445 704.043 270.439L704.044 270.439C705.767 270.427 707.346 270.417 708.921 270.472C710.428 270.524 711.268 269.935 711.734 268.497C712.226 266.986 712.753 265.486 713.281 263.986L713.281 263.986L713.281 263.986C713.824 262.443 714.367 260.901 714.87 259.345C715.297 258.022 715.979 257.439 717.429 257.454C723.556 257.518 729.684 257.512 735.81 257.458C737.216 257.445 737.96 257.914 738.404 259.29C739.423 262.44 740.53 265.564 741.758 268.638C742.045 269.355 742.908 270.28 743.57 270.334C745.383 270.477 747.21 270.455 749.173 270.432ZM733.505 245.222L735.222 250.123H718.152L720.6 243.062L720.786 242.523L720.903 242.185C722.693 237.021 724.454 231.939 726.216 226.857C726.489 226.829 726.765 226.801 727.038 226.774C729.161 232.825 731.281 238.876 733.471 245.125L733.505 245.222ZM851.716 242.623C851.716 240.384 851.721 238.145 851.725 235.906V235.903C851.737 229.811 851.749 223.718 851.672 217.627C851.646 215.587 852.306 214.94 854.298 214.998C857.023 215.078 859.751 215.102 862.478 215.127C867.232 215.17 871.984 215.213 876.717 215.546C883.613 216.03 889.201 219.297 891.646 226.086C893.883 232.301 893.561 238.498 888.985 243.808C886.006 247.264 881.987 248.926 877.554 249.287C872.907 249.665 868.23 249.784 863.567 249.75C861.349 249.734 860.559 250.383 860.612 252.621C860.675 255.36 860.664 258.101 860.654 260.841V260.843C860.645 263.203 860.636 265.563 860.673 267.923C860.701 269.776 860.066 270.514 858.17 270.478C857.15 270.459 856.287 270.46 855.558 270.461C853.433 270.462 852.445 270.463 852.003 269.973C851.619 269.547 851.646 268.75 851.696 267.262C851.722 266.482 851.755 265.512 851.738 264.305C851.669 259.28 851.685 254.255 851.702 249.23V249.228C851.709 247.026 851.716 244.825 851.716 242.623ZM860.662 232.511C860.662 233.286 860.662 234.061 860.661 234.835C860.66 236.698 860.659 238.56 860.664 240.422C860.666 241.645 860.931 242.585 862.494 242.563C863.989 242.542 865.486 242.558 866.983 242.574C869.658 242.601 872.332 242.629 874.994 242.449C880.308 242.088 883.572 238.543 883.861 233.357C884.165 227.934 881.239 223.548 876.015 222.805C872.236 222.267 868.369 222.307 864.521 222.347C863.782 222.355 863.044 222.363 862.307 222.366C861.756 222.369 860.789 223.625 860.737 224.35C860.601 226.303 860.623 228.268 860.646 230.232C860.654 230.992 860.663 231.752 860.662 232.511Z" fill="#FF8400"/>
<path fill-rule="evenodd" clip-rule="evenodd" d="M587.505 222.101C583.434 216.297 577.371 214.482 570.442 213.859C569.357 214.134 568.256 214.372 567.155 214.61C564.705 215.14 562.255 215.669 559.972 216.607C554.522 218.842 551.224 223.142 551 229.144C550.796 234.612 553.401 238.844 558.192 241.462C560.829 242.904 563.618 244.077 566.399 245.247L566.399 245.247L566.407 245.25C566.829 245.427 567.25 245.605 567.671 245.783C569.014 246.352 570.379 246.871 571.744 247.389L571.745 247.389L571.745 247.39C573.632 248.107 575.518 248.823 577.343 249.671C580.358 251.07 581.652 253.772 581.39 256.997C581.122 260.258 579.252 262.505 576.089 263.477C571.614 264.852 567.121 264.789 563.052 262.393C561.424 261.435 559.975 259.689 559.145 257.963C559.109 257.887 559.073 257.813 559.039 257.741C558.986 257.63 558.934 257.522 558.885 257.419C557.437 254.382 557.398 254.299 553.43 254.3C553.216 254.3 553.001 254.306 552.786 254.311C552.319 254.323 551.851 254.335 551.39 254.29C549.368 254.092 549.108 255.178 549.428 256.811C550.05 259.984 551.414 262.718 553.775 264.992C561.038 271.983 575.46 273.494 583.979 268.079C586.799 266.286 588.839 263.883 589.826 260.625C591.888 253.82 589.392 247.097 582.815 243.446C580.345 242.076 577.674 241.072 575 240.068C573.614 239.547 572.227 239.026 570.868 238.454C570.229 238.185 569.579 237.929 568.929 237.672C566.961 236.897 564.987 236.119 563.267 234.968C558.479 231.768 559.234 224.933 564.534 222.625C566.132 221.929 567.965 221.473 569.698 221.447C574.683 221.372 579.289 222.477 580.501 227.189C581.429 230.797 583.242 231.315 586.234 230.922C586.902 230.834 587.6 230.847 588.273 230.92C590.103 231.118 590.689 230.066 590.22 228.612C590.14 228.364 590.061 228.114 589.981 227.864L589.981 227.863C589.341 225.851 588.681 223.775 587.505 222.101ZM535.158 254.922C537.575 256.546 538.329 259.103 537.487 262.403C536.176 267.547 530.742 271.575 524.825 271.789C519.521 271.98 515.05 268.836 513.531 263.283C512.645 260.04 512.09 256.6 512.077 253.246C512.056 247.263 512.234 241.28 512.412 235.296C512.484 232.865 512.556 230.435 512.615 228.004C512.622 227.746 512.62 227.488 512.619 227.127V227.126V227.125V227.124L512.619 227.118C512.618 226.909 512.616 226.666 512.616 226.369C511.85 226.369 511.09 226.361 510.335 226.352C508.173 226.328 506.054 226.304 503.953 226.482C503.415 226.527 502.588 228.031 502.593 228.857C502.624 233 502.724 237.142 502.824 241.285L502.824 241.286C502.892 244.112 502.96 246.939 503.006 249.766C503.019 250.548 503.04 251.331 503.06 252.114C503.139 255.16 503.218 258.214 502.861 261.211C502.57 263.637 501.479 266.113 500.2 268.238C498.45 271.145 495.586 271.903 492.971 270.75C489.763 269.335 487.879 266.11 488.738 262.923C489.395 260.483 490.312 258.077 491.401 255.792C495.71 246.734 495.493 237.187 494.608 227.567C494.409 225.407 492.531 225.697 491.232 226.015C488.729 226.628 486.263 227.394 483.798 228.16L483.797 228.161C483.027 228.4 482.257 228.639 481.486 228.874C480.77 229.093 480.062 229.343 479.249 229.63L479.249 229.63C478.839 229.775 478.402 229.929 477.923 230.094C477.968 229.747 477.988 229.467 478.005 229.236C478.033 228.848 478.05 228.599 478.161 228.403C480.924 223.542 484.19 219.073 489.199 216.331C490.764 215.475 492.743 215.013 494.539 214.997C505.183 214.902 515.827 214.918 526.471 214.934C528.337 214.937 530.203 214.94 532.068 214.942C536.071 214.946 537.714 216.576 537.734 220.445C537.752 224.31 535.9 226.243 531.999 226.325C530.959 226.346 529.918 226.338 528.877 226.329C527.193 226.315 525.51 226.3 523.834 226.414C523.063 226.466 521.809 227.269 521.695 227.896C520.028 237.021 518.662 246.184 520.973 255.411C521.258 256.547 521.81 257.641 522.387 258.673C523.941 261.46 526.29 262.788 528.783 262.402C531.86 261.926 534.005 259.79 534.664 256.577C534.739 256.204 534.86 255.839 534.986 255.458L534.986 255.457C535.044 255.283 535.102 255.106 535.158 254.922ZM313.006 257.52C313.637 255.85 314.269 254.18 314.9 252.51L314.901 252.509C316.242 248.962 317.584 245.416 318.918 241.866C319.611 240.023 320.307 238.181 321.002 236.338C323.395 229.997 325.788 223.656 328.096 217.283C328.732 215.526 329.664 214.909 331.46 214.996C333.829 215.112 336.209 215.066 338.582 215.02L338.863 215.015C340.304 214.988 341.038 215.41 341.034 217.044C341.003 230.295 341.005 243.546 341.007 256.797V256.797V256.797V256.798C341.008 260.652 341.009 264.507 341.008 268.362C341.008 268.435 341.015 268.512 341.021 268.591C341.038 268.787 341.054 268.987 340.969 269.119C339.814 270.913 338.251 270.692 336.684 270.471C335.873 270.356 335.062 270.242 334.305 270.406C333.134 270.662 332.092 270.255 332.111 268.689L332.123 267.737C332.233 258.697 332.343 249.659 332.426 240.619C332.463 236.602 332.432 232.585 332.048 228.449C331.925 228.733 331.798 229.016 331.671 229.299L331.671 229.299L331.671 229.299L331.671 229.299C331.402 229.899 331.132 230.5 330.897 231.112C329.79 233.998 328.679 236.882 327.569 239.767L327.568 239.767L327.568 239.767L327.568 239.767L327.568 239.768L327.568 239.768L327.568 239.768C323.948 249.168 320.329 258.568 316.83 268.012C315.961 270.358 314.526 270.473 312.539 270.498C310.502 270.525 309.07 270.266 308.221 267.988C304.654 258.427 300.996 248.9 297.338 239.373C296.217 236.453 295.096 233.533 293.977 230.612C293.685 229.849 293.34 229.106 292.545 228.388C292.515 228.546 292.475 228.704 292.435 228.862C292.348 229.206 292.261 229.549 292.273 229.889C292.353 232.085 292.45 234.281 292.546 236.476L292.546 236.476C292.718 240.395 292.89 244.314 292.969 248.235C293.041 251.786 293.04 255.339 293.038 258.892C293.037 261.892 293.035 264.893 293.078 267.893C293.105 269.718 292.573 270.516 290.633 270.477C289.61 270.457 288.745 270.457 288.013 270.458C285.892 270.458 284.898 270.459 284.452 269.965C284.059 269.529 284.09 268.711 284.148 267.171C284.178 266.402 284.214 265.454 284.207 264.284C284.167 257.074 284.171 249.863 284.175 242.651C284.179 234.543 284.184 226.435 284.125 218.327C284.106 215.817 284.659 214.711 287.351 214.989C288.354 215.093 289.44 215.041 290.515 214.989C292.495 214.894 294.44 214.801 295.764 215.684C297.162 216.615 297.787 218.745 298.402 220.839L298.402 220.839C298.635 221.634 298.867 222.425 299.139 223.142C301.767 230.062 304.376 236.989 306.984 243.916L306.986 243.921C308.417 247.721 309.848 251.521 311.282 255.32C311.475 255.831 311.7 256.331 311.925 256.83C312.033 257.071 312.142 257.312 312.246 257.554C312.379 257.548 312.511 257.542 312.643 257.536C312.764 257.531 312.885 257.525 313.006 257.52ZM407.73 270.38H407.73C405.6 270.399 403.638 270.418 401.686 270.28C401.146 270.242 400.491 269.178 400.221 268.462C399.084 265.443 398.042 262.388 397.03 259.324C396.6 258.022 395.898 257.435 394.445 257.452C391.967 257.48 389.487 257.478 387.008 257.476C383.358 257.473 379.708 257.47 376.06 257.561C375.186 257.583 373.912 258.517 373.559 259.343C372.295 262.303 371.282 265.378 370.311 268.453C369.848 269.919 369.045 270.512 367.537 270.466C365.967 270.419 364.393 270.428 362.671 270.439C361.902 270.443 361.104 270.448 360.263 270.448C360.644 269.406 361.004 268.41 361.353 267.446L361.353 267.446C362.078 265.44 362.754 263.572 363.456 261.715C365.036 257.542 366.62 253.37 368.205 249.199C372.2 238.68 376.196 228.161 380.109 217.611C380.88 215.531 381.935 214.927 384.019 214.988C384.909 215.014 385.648 215.019 386.266 215.023C387.928 215.034 388.717 215.04 389.222 215.422C389.678 215.768 389.901 216.422 390.326 217.669C390.532 218.273 390.785 219.016 391.135 219.931C395.854 232.26 400.532 244.603 405.21 256.947C406.553 260.489 407.895 264.031 409.238 267.572C409.411 268.028 409.559 268.494 409.762 269.136L409.762 269.136C409.872 269.485 409.999 269.886 410.155 270.365C409.319 270.365 408.513 270.373 407.73 270.38ZM385.684 226.869C385.539 226.864 385.394 226.859 385.249 226.855C385.104 226.85 384.958 226.845 384.813 226.84C382.834 232.542 380.854 238.244 378.839 244.048L376.75 250.063H393.77C391.918 244.75 390.113 239.572 388.323 234.439L385.684 226.869ZM451.835 252.268C451.84 250.316 451.846 248.365 451.846 246.413C451.846 244.436 451.851 242.46 451.855 240.483C451.866 235.225 451.877 229.967 451.809 224.71C451.785 222.812 452.392 222.17 454.288 222.218C456.531 222.275 458.776 222.265 461.02 222.255C463.032 222.246 465.044 222.237 467.054 222.276C468.737 222.31 469.405 221.692 469.235 220.04C469.166 219.366 469.136 218.666 469.24 218C469.613 215.594 468.558 214.962 466.244 214.981C457.286 215.053 448.327 215.043 439.368 215.033C436.241 215.03 433.115 215.026 429.988 215.026C425.452 215.026 425.452 215.028 425.421 219.307C425.42 219.403 425.419 219.5 425.418 219.599C425.401 221.798 426.277 222.349 428.304 222.284C430.09 222.226 431.88 222.242 433.669 222.258C435.711 222.276 437.753 222.295 439.79 222.203C442.078 222.099 442.66 222.898 442.644 225.112C442.55 238.048 442.537 250.984 442.621 263.921C442.646 267.706 442.302 269.303 442.937 269.974C443.578 270.652 445.214 270.388 449.227 270.477C451.165 270.521 451.924 269.939 451.89 267.859C451.805 262.663 451.82 257.466 451.835 252.268Z" fill="#FF8400"/>
<path fill-rule="evenodd" clip-rule="evenodd" d="M728.357 162.288L728.357 162.29L728.357 162.292L728.356 162.294L728.356 162.296L728.356 162.298L728.355 162.299C727.92 164.425 727.485 166.55 727.076 168.679L727.161 168.702L727.243 168.724L727.345 168.752L727.434 168.776C727.484 168.789 727.535 168.803 727.585 168.817C727.647 169.557 727.701 170.298 727.754 171.039C727.878 172.756 728.002 174.472 728.233 176.175C728.425 177.589 728.841 179.007 729.372 180.336C732.369 187.821 738.927 190.037 745.63 185.606C748.22 183.894 750.551 181.678 752.676 179.391C762.557 168.761 769.693 156.265 776.825 143.778L776.829 143.769C777.331 142.891 777.832 142.013 778.334 141.136C778.954 140.056 779.416 138.766 779.508 137.54C779.567 136.728 779.345 135.896 779.124 135.064L779.124 135.064L779.124 135.063L779.124 135.063L779.124 135.062L779.124 135.062L779.124 135.061C779.027 134.698 778.93 134.335 778.857 133.974C778.582 134.182 778.304 134.386 778.026 134.591L778.024 134.592L778.024 134.592C777.342 135.093 776.66 135.594 776.023 136.146C775.776 136.36 775.618 136.675 775.459 136.991L775.459 136.991C775.382 137.144 775.305 137.296 775.218 137.438C773.589 140.085 771.982 142.745 770.374 145.406C766.531 151.767 762.687 158.128 758.553 164.294C755.167 169.343 750.999 173.907 746.834 178.363C745.735 179.538 742.957 180.357 741.645 179.775C740.343 179.196 739.316 176.675 739.231 174.953C739.108 172.511 739.295 170.054 739.482 167.596C739.579 166.322 739.676 165.048 739.73 163.775C739.746 163.423 739.618 163.069 739.488 162.711C739.383 162.422 739.278 162.132 739.247 161.839C739.205 161.435 739.322 161.005 739.436 160.59L739.436 160.587C739.457 160.51 739.478 160.432 739.498 160.356C739.934 158.691 740.363 157.024 740.792 155.357L740.798 155.335L740.798 155.334L740.798 155.333L740.799 155.332L740.799 155.331L740.799 155.33L740.799 155.329C742.019 150.591 743.239 145.853 744.605 141.158C745.205 139.092 746.311 137.089 747.545 135.305C748.984 133.224 750.501 131.193 752.017 129.162L752.017 129.162L752.017 129.161L752.018 129.161C754.321 126.076 756.623 122.991 758.652 119.736C760.618 116.581 762.696 113.493 764.774 110.404L764.774 110.403L764.774 110.403L764.774 110.402L764.775 110.402L764.775 110.402L764.775 110.401C769.851 102.855 774.928 95.3064 778.388 86.7861C780.478 81.6371 782.5 76.5131 782.068 70.8051C781.751 66.5821 778.815 62.3561 775.38 61.3151C771.319 60.0841 768.588 62.3801 766.474 65.2641C766.042 65.8542 765.608 66.444 765.173 67.0343L765.164 67.0463L765.164 67.0467L765.164 67.0471C761.73 71.7127 758.279 76.4024 755.473 81.4351C751.224 89.0591 747.001 96.8341 744.023 105.004C743.294 107.006 742.553 109.005 741.811 111.005L741.809 111.01L741.809 111.01C737.317 123.123 732.815 135.263 730.953 148.204C730.274 152.924 729.316 157.603 728.358 162.282L728.358 162.283L728.358 162.284L728.358 162.285L728.358 162.286L728.358 162.287L728.357 162.288ZM750.806 122.754C750.639 122.674 750.472 122.593 750.305 122.512C750.632 121.502 750.957 120.491 751.283 119.48L751.308 119.401L751.334 119.321C751.659 118.31 751.985 117.3 752.311 116.289C756.761 102.568 761.297 88.8731 768.107 76.0911C769.235 73.9736 770.784 72.0678 772.318 70.1799C772.601 69.8318 772.883 69.4842 773.162 69.1361C773.469 68.7551 774.031 68.5783 774.592 68.4019C774.85 68.3208 775.108 68.2398 775.34 68.1391C775.435 68.3977 775.566 68.6627 775.697 68.9278C775.982 69.5063 776.268 70.0851 776.177 70.5981L776.114 70.9568C775.606 73.8325 775.093 76.7422 774.141 79.4851C770.396 90.2881 764.806 100.188 758.827 109.877C757.037 112.779 755.23 115.67 753.423 118.562L753.416 118.574C752.545 119.967 751.675 121.36 750.806 122.754ZM755.888 86.5561L755.696 86.4048L755.692 86.4012L755.691 86.4004C755.529 86.2726 755.367 86.1451 755.206 86.0171L755.847 84.9517C757.327 82.4891 758.807 80.0272 760.288 77.5661C760.411 77.6391 760.533 77.7123 760.656 77.7856L760.659 77.7872L760.959 77.9666L761.023 78.0051C760.279 79.2452 759.534 80.4853 758.789 81.7254C757.822 83.3354 756.855 84.9456 755.888 86.5561ZM426.257 140.2C425.225 141.879 424.194 143.558 423.166 145.24C422.974 145.21 422.782 145.181 422.587 145.152C422.587 144.645 422.576 144.138 422.564 143.63C422.54 142.527 422.515 141.424 422.607 140.33C422.795 138.122 423.044 135.915 423.294 133.709L423.294 133.709L423.294 133.708L423.294 133.708L423.294 133.708L423.294 133.708L423.294 133.708C423.79 129.322 424.287 124.936 424.293 120.55C424.303 113.869 423.896 107.187 423.489 100.506L423.489 100.506C423.337 98.0084 423.185 95.5111 423.054 93.0141C422.798 88.1171 422.53 83.2181 422.12 78.3331C421.793 74.4451 420.407 72.5291 417.201 73.3631C410.605 75.0801 406.89 80.1511 407.883 86.6961C409.557 97.7291 410.891 108.716 410.352 119.974C410.202 123.112 410.216 126.253 410.231 129.394C410.261 136.134 410.291 142.873 408.699 149.574C408.115 152.033 407.73 154.536 407.344 157.04C406.543 162.237 405.742 167.434 403.168 172.236C401.941 174.524 403.055 176.077 405.671 176.66C410.179 177.663 414.974 175.391 416.781 171.151C417.381 169.743 417.871 168.277 418.36 166.814C419.117 164.547 419.873 162.285 421.035 160.249C423.11 156.618 425.09 152.931 427.07 149.244L427.07 149.244L427.07 149.244L427.07 149.244L427.07 149.244L427.07 149.244L427.071 149.243C431.48 141.033 435.89 132.822 441.347 125.223C441.941 124.397 442.533 123.57 443.125 122.744L443.126 122.742L443.128 122.74L443.129 122.739C450.861 111.945 458.594 101.151 468.562 92.1971C469.277 91.5559 469.966 90.8862 470.655 90.2165L470.655 90.2164L470.656 90.2163L470.656 90.2162L470.656 90.2161L470.656 90.216L470.656 90.2158L470.656 90.2155C471.368 89.5245 472.079 88.8336 472.817 88.1741L473.021 87.9926L473.021 87.9926C474.311 86.8406 475.61 85.6801 477.032 84.7101C477.741 84.2263 478.511 83.8232 479.279 83.4212C480.322 82.8749 481.361 82.3306 482.239 81.5881C484.087 80.0251 483.306 78.1701 481.855 76.7081C481.787 76.6393 481.718 76.5693 481.649 76.4986C480.528 75.357 479.253 74.0578 477.501 75.4431C477.144 75.7251 476.786 76.0066 476.428 76.2883C473.843 78.321 471.243 80.3649 468.955 82.7011C455.212 96.7331 443.183 112.111 433.087 128.983C430.84 132.74 428.548 136.47 426.257 140.2ZM413.634 133.445C414.355 136.691 411.899 156.852 409.951 161.602C410.744 155.544 411.534 149.5 412.3 143.647L413.634 133.445ZM565.91 106.524C563.073 106.559 560.25 106.796 557.44 107.031C550.924 107.578 544.485 108.118 538.133 106.115L538.099 105.839C538.092 105.786 538.085 105.734 538.079 105.681C538.068 105.593 538.057 105.505 538.046 105.418L538.042 105.383L538.027 105.264C538.788 105.084 539.547 104.873 540.305 104.662C541.969 104.199 543.633 103.736 545.323 103.601C552.016 103.066 558.73 102.754 565.441 102.512C567.424 102.44 568.506 101.783 569.246 99.9001C570.579 96.5031 571.934 93.0681 573.743 89.9161C576.814 84.5641 580.091 79.3141 583.574 74.2201C586.1 70.5221 592.292 69.3481 596.266 71.3801C598.245 72.3931 598.584 73.6721 597.316 75.4671C596.468 76.6672 595.598 77.8538 594.728 79.0403L594.728 79.0407L594.727 79.0413L594.727 79.0422L594.726 79.0434C592.85 81.6018 590.975 84.1598 589.314 86.8521C587.452 89.8707 585.814 93.027 584.176 96.1831L584.176 96.1833L584.175 96.1844L584.174 96.1856L584.174 96.1867L584.173 96.1879L584.173 96.1891C583.543 97.4024 582.913 98.6157 582.27 99.8211C582.065 100.206 581.926 100.627 581.785 101.056C581.717 101.261 581.649 101.468 581.572 101.674H599.027C599.384 103.616 598.025 105.292 595.488 105.428C591.073 105.663 586.651 105.833 582.231 105.887C580.141 105.913 578.658 106.489 577.855 108.582C576.293 112.651 574.678 116.702 573.063 120.753C567.573 134.524 562.083 148.294 558.655 162.793C558.583 163.1 558.509 163.407 558.436 163.715L558.436 163.718L558.435 163.721C557.702 166.801 556.968 169.887 556.512 173.011C556.329 174.262 556.816 176.595 557.475 176.787C559.014 177.235 560.754 176.59 561.165 174.455C561.211 174.213 561.428 174.004 561.647 173.794L561.647 173.794C561.756 173.69 561.866 173.585 561.954 173.475C564.36 170.5 566.764 167.525 569.168 164.55L569.202 164.508L569.271 164.423L569.279 164.413L569.282 164.409L569.286 164.405L569.289 164.401L569.292 164.397C576.143 155.919 582.993 147.442 589.861 138.978C590.08 138.709 590.287 138.376 590.5 138.036C591.248 136.839 592.057 135.545 593.591 136.549C595.51 137.805 594.105 139.902 593.101 141.281C584.247 153.448 575.328 165.569 566.374 177.663C564.909 179.641 563.257 181.492 561.569 183.288C557.181 187.961 551.466 187.646 548.199 182.121C546.825 179.796 546.023 176.564 546.348 173.915C547.188 167.04 548.555 160.199 550.17 153.455C551.747 146.865 553.623 140.317 555.851 133.918C557.977 127.817 560.317 121.791 562.657 115.765C563.715 113.039 564.774 110.312 565.813 107.578C565.868 107.44 565.873 107.284 565.882 107.043C565.887 106.903 565.893 106.734 565.91 106.524ZM562.006 145.506L562.334 144.595C564.783 137.798 567.232 131 569.681 124.203C564.394 134.464 560.507 145.218 558.053 156.475L561.933 145.706L561.969 145.606L562.006 145.506ZM694.558 129.221L694.556 129.223C694.144 129.617 693.732 130.012 693.311 130.395C692.937 129.611 692.588 128.824 692.241 128.043L692.241 128.043C691.471 126.31 690.715 124.608 689.739 123.045C687.621 119.651 683.964 118.159 681.021 119.867C677.626 121.837 674.067 124.047 671.614 127.009C666.328 133.396 663.461 141.128 662.125 149.269C661.559 152.715 661.576 156.422 662.175 159.862C663.445 167.154 671.31 167.687 675.115 163.46C678.517 159.678 681.619 155.619 684.715 151.567C685.168 150.975 685.621 150.382 686.074 149.79C687.316 148.171 688.428 146.452 689.54 144.733L689.54 144.733L689.543 144.729C690.043 143.957 690.542 143.185 691.053 142.422C691.182 142.494 691.31 142.566 691.438 142.637L691.549 142.7L691.66 142.762C691.479 143.574 691.298 144.386 691.115 145.198C690.881 146.246 690.626 147.291 690.372 148.337C689.804 150.674 689.235 153.011 688.886 155.38C688.198 160.047 688.948 164.567 691.631 168.559C694.431 172.723 698.603 173.487 702.63 170.518C704.254 169.321 705.668 167.793 707.013 166.27C713.206 159.257 717.437 151.031 721.665 142.811L721.668 142.806C722.297 141.581 722.927 140.357 723.563 139.137C723.945 138.407 723.983 137.498 724.021 136.589C724.039 136.17 724.057 135.75 724.108 135.348C723.944 135.298 723.778 135.247 723.613 135.197L723.364 135.121L723.149 135.055C722.862 135.396 722.563 135.729 722.264 136.062L722.264 136.062L722.264 136.063C721.621 136.779 720.979 137.495 720.447 138.286C719.073 140.327 717.724 142.385 716.375 144.443L716.371 144.448C714.225 147.722 712.08 150.994 709.833 154.197C707.79 157.109 705.417 159.803 703.025 162.445C702.587 162.931 701.861 163.157 701.135 163.384C700.802 163.487 700.469 163.591 700.163 163.72C700.058 163.408 699.914 163.091 699.769 162.774L699.769 162.774L699.769 162.773L699.769 162.773L699.769 162.772C699.457 162.088 699.146 161.403 699.222 160.764C699.348 159.713 699.465 158.659 699.582 157.605V157.605V157.605V157.604V157.604C700.265 151.444 700.949 145.274 703.451 139.481C704.009 138.19 704.637 136.929 705.265 135.668L705.266 135.666C705.547 135.101 705.828 134.536 706.103 133.969C707.667 130.739 707.37 128.643 705.069 126.63C702.824 124.669 700.153 124.627 697.403 126.704C696.395 127.465 695.476 128.343 694.558 129.221ZM688.278 127.48C688.052 127.585 687.829 127.689 687.603 127.793C687.762 128.394 687.93 128.993 688.099 129.592L688.1 129.594C688.501 131.018 688.902 132.442 689.163 133.889C689.352 134.935 689.432 136.352 688.885 137.124C685.182 142.364 681.366 147.524 677.55 152.685L677.509 152.739C676.851 153.63 676.193 154.52 675.535 155.41C675.136 155.949 674.655 156.48 674.097 156.838C673.574 157.174 672.743 157.592 672.336 157.392C671.913 157.185 671.574 156.241 671.65 155.679C671.77 154.787 671.865 153.884 671.96 152.979C672.229 150.404 672.5 147.818 673.363 145.456C675.342 140.058 677.815 134.835 680.281 129.628L680.281 129.628L680.281 129.627L680.281 129.627L680.281 129.627L680.61 128.932L680.912 128.293C681.492 127.071 682.724 126.03 683.89 125.261C684.613 124.787 685.983 124.602 686.686 124.983C687.215 125.268 687.531 125.946 687.847 126.625C687.985 126.921 688.123 127.217 688.278 127.48ZM626.073 145.352L626.073 145.352C624.402 147.488 622.731 149.624 620.915 151.626C618.124 154.705 615.259 157.799 612.004 160.347C610.126 161.816 607.474 162.585 605.056 162.983C603.174 163.293 601.6 161.956 600.795 159.983C599.201 156.08 599.53 152.097 600.42 148.181C600.459 148.011 600.497 147.84 600.536 147.669C600.582 147.461 600.629 147.253 600.676 147.045L600.677 147.038C601.485 143.433 602.306 139.768 603.837 136.466C606.214 131.342 609.183 126.459 612.292 121.731C613.221 120.319 615.387 119.163 617.117 118.945C622.073 118.32 624.051 121.32 621.78 125.697C621.33 126.565 620.748 127.365 620.166 128.164C619.56 128.996 618.955 129.827 618.499 130.734C617.693 132.338 617.016 134.005 616.338 135.674C615.935 136.666 615.532 137.659 615.101 138.639C614.445 140.134 613.762 141.618 613.079 143.101L613.078 143.102L613.078 143.103L613.077 143.104L613.077 143.105C612.563 144.221 612.05 145.336 611.547 146.457C611.437 146.704 611.315 146.951 611.192 147.2C610.817 147.961 610.437 148.731 610.371 149.52C610.279 150.642 610.385 151.78 610.491 152.918C610.537 153.404 610.582 153.89 610.612 154.375C611.068 154.224 611.563 154.114 612.059 154.004C613.139 153.764 614.219 153.524 614.882 152.865C618.128 149.637 621.208 146.21 624.07 142.634C625.762 140.519 627.29 138.274 628.818 136.028L628.819 136.028L628.819 136.027L628.819 136.027L628.82 136.026C629.638 134.824 630.456 133.622 631.299 132.44C631.509 132.147 631.714 131.846 631.921 131.545C632.686 130.427 633.459 129.297 634.472 128.48C635.803 127.407 637.489 126.431 639.139 126.164C642.971 125.543 644.888 128.06 643.671 131.753C643.065 133.59 642.445 135.424 641.825 137.257L641.825 137.258L641.825 137.258L641.824 137.26C640.638 140.768 639.453 144.275 638.358 147.81C637.86 149.415 637.907 151.187 638.074 153.031C642.569 150.5 645.948 146.819 649.306 143.161C651.832 140.41 654.346 137.671 657.314 135.443C657.543 135.592 657.771 135.742 657.999 135.892C657.893 136.192 657.799 136.499 657.705 136.806L657.705 136.806L657.704 136.807L657.704 136.807C657.498 137.481 657.291 138.156 656.954 138.758C653.049 145.758 647.705 151.569 641.705 156.789C640.445 157.885 638.909 158.788 637.352 159.397C631.093 161.848 625.589 157.47 626.602 150.807C626.886 148.933 627.396 147.093 627.907 145.253C628.141 144.408 628.376 143.562 628.588 142.713C628.492 142.653 628.397 142.592 628.301 142.531C627.55 143.464 626.812 144.408 626.073 145.352L626.073 145.352L626.073 145.352ZM512.134 140.359H512.134H512.135C512.411 140.363 512.713 140.368 513.05 140.368C512.614 141.3 512.169 142.213 511.729 143.117L511.729 143.117L511.729 143.117L511.729 143.117C510.773 145.079 509.838 146.997 509.055 148.976C508.837 149.529 508.617 150.082 508.398 150.636C506.47 155.5 504.538 160.374 503.024 165.37C501.94 168.945 503.169 172.471 505.406 175.466C507.27 177.963 510.663 178.922 512.859 177.633C518.237 174.478 523.379 170.954 527.175 165.925C532.298 159.138 537.238 152.211 542.152 145.27C543.369 143.549 544.387 141.62 545.114 139.645C545.444 138.751 545.446 137.736 545.448 136.721V136.72C545.449 136.266 545.45 135.812 545.48 135.368C545.113 135.619 544.718 135.847 544.322 136.075C543.466 136.568 542.611 137.061 542.05 137.783C539.088 141.596 536.168 145.442 533.247 149.287C529.94 153.642 526.633 157.997 523.265 162.304C521.312 164.802 518.96 167.011 516.624 169.172C516.014 169.737 515.182 170.065 514.35 170.393C513.969 170.543 513.589 170.692 513.229 170.865L512.611 170.286C512.703 169.884 512.777 169.475 512.852 169.065C513.012 168.182 513.173 167.299 513.505 166.486C516.555 159.002 519.662 151.54 522.769 144.079L523.635 142C525.149 138.363 524.367 136.551 520.545 135.627C519.332 135.334 518.066 135.261 516.8 135.189H516.8C516.193 135.155 515.586 135.12 514.985 135.061C514.656 135.029 514.325 135.006 513.993 134.983H513.993C513.136 134.923 512.278 134.864 511.462 134.648C508.821 133.949 508.327 132.996 509.52 130.616C510.266 129.129 511.294 127.753 512.362 126.465C514.017 124.472 513.469 122.905 511.214 121.806C506.478 119.5 499.835 125.257 500.38 131.863C500.898 138.128 504.433 140.813 510.723 140.374C511.161 140.344 511.603 140.351 512.134 140.359ZM459.318 147.857C459.831 146.07 460.321 144.275 460.812 142.479C461.984 138.189 463.156 133.898 464.628 129.714C465.847 126.254 469.586 125.66 473.834 127.575C477.462 129.21 477.51 130.506 474.935 133.602C473.366 135.49 472.326 137.916 471.438 140.249C470.179 143.554 469.139 146.963 468.312 150.401C468.061 151.442 468.517 153.433 469.2 153.733C470.178 154.162 471.92 153.806 472.882 153.134C475.942 150.996 478.851 148.627 481.681 146.188C482.097 145.829 482.311 145.253 482.528 144.668C482.693 144.224 482.861 143.774 483.119 143.409C484.939 140.848 486.78 138.29 488.804 135.893C489.153 135.481 489.839 135.354 490.526 135.226C490.842 135.168 491.158 135.109 491.441 135.023C491.482 135.294 491.547 135.57 491.612 135.846C491.757 136.464 491.902 137.082 491.773 137.635C491.531 138.674 490.949 139.69 490.315 140.573C488.547 143.039 486.758 145.49 484.969 147.942L484.969 147.942L484.969 147.942C482.848 150.848 480.727 153.753 478.641 156.684C473.87 163.388 467.552 160.967 463.877 156.217C459.808 150.959 459.774 150.742 459.334 147.957L459.318 147.857ZM469.781 116.687C469.632 116.996 469.473 117.323 469.282 117.656C469.509 118.057 469.706 118.484 469.899 118.903C470.347 119.871 470.774 120.796 471.497 121.255C472.098 121.638 474.011 120.792 474.736 119.971C475.752 118.82 476.565 117.491 477.379 116.163C477.733 115.585 478.088 115.007 478.458 114.443C478.887 113.792 479.289 113.111 479.69 112.43C480.609 110.872 481.528 109.313 482.781 108.099C485.372 105.59 486.248 104.104 485.101 101.833C483.536 98.7291 480.565 97.2861 477.529 98.1541C475.406 98.7601 474.589 100.667 475.488 102.729C475.712 103.244 475.874 103.966 475.689 104.451C475.31 105.451 475.012 106.489 474.714 107.527C473.916 110.303 473.118 113.081 470.76 115.16C470.344 115.527 470.081 116.07 469.781 116.687Z" fill="#021983"/>
<path fill-rule="evenodd" clip-rule="evenodd" d="M218.098 94.4531C218.508 93.1744 218.833 91.8984 219.485 90.7616C220.998 88.1246 221.886 85.1815 223.512 82.6024C225.821 78.9418 228.805 75.8361 231.693 72.6528C232.479 71.7875 233.312 70.966 234.106 70.1092C237.006 66.9831 240.651 64.8296 244.206 62.6133C246.615 61.1114 249.383 60.2011 252.153 59.5352C255.102 58.8266 258.074 58.117 261.102 57.8652C266.213 57.44 271.271 57.828 276.23 59.239C281.303 60.6829 286.08 62.8456 290.466 65.716C294.213 68.1687 297.685 71.044 300.7 74.4041C302.012 75.8657 303.307 77.3393 304.784 78.6423C306.092 79.7956 307.111 81.1868 308.031 82.662C308.336 83.1524 308.468 83.4835 307.975 83.9795C305.669 86.3005 303.401 88.6601 301.137 91.0229C300.723 91.455 300.43 91.5337 300.048 90.9972C299.643 90.4268 299.143 89.9229 298.74 89.3506C295.72 85.0518 291.88 81.6621 287.608 78.6104C282.258 74.7888 276.533 71.8122 270.261 69.9638C266.422 68.8322 262.519 68.0321 258.414 68.0969C254.101 68.1647 249.955 68.771 245.908 70.1665C243.244 71.0854 240.867 72.5929 238.417 73.9555C233.828 76.5089 229.913 79.9108 226.422 83.7616C224.679 85.6844 223.016 87.7388 221.633 89.9664C220.619 91.6015 219.303 92.9888 218.098 94.4531Z" fill="#038182"/>
<path fill-rule="evenodd" clip-rule="evenodd" d="M233.419 103.867C234.86 100.156 236.867 96.7863 238.774 93.3653C238.864 93.2034 238.968 93.0411 239.097 92.9101C242.97 88.9701 246.935 85.1275 251.858 82.4869C255.959 80.2866 260.379 79.0962 265.028 79.0563C266.971 79.0399 268.924 79.501 270.862 79.812C277.98 80.9541 283.945 84.3086 289.032 89.3404C291.127 91.4132 293.136 93.5671 295.156 95.711C295.648 96.2321 295.836 96.5536 295.225 97.1645C292.943 99.4454 290.714 101.78 288.488 104.116C288.071 104.553 287.784 104.604 287.354 104.148C286.488 103.229 285.539 102.388 284.696 101.45C280.554 96.8377 275.255 93.8633 269.904 90.9666C268.745 90.339 267.42 90.0793 266.14 89.9213C263.777 89.6293 261.411 89.3279 259.02 89.2667C257.411 89.2255 255.848 89.4464 254.307 89.8377C250.391 90.8317 246.643 92.1719 243.371 94.6842C240.58 96.8271 237.842 98.9945 235.692 101.817C235.067 102.637 234.254 103.273 233.419 103.867Z" fill="#038182"/>
<path fill-rule="evenodd" clip-rule="evenodd" d="M249.517 113.716C250.183 111.642 250.674 109.554 252.191 107.81C253.989 105.744 255.888 103.838 258.236 102.437C261.971 100.209 265.971 99.5152 270.216 100.653C271.252 100.931 272.286 101.252 273.273 101.667C274.911 102.355 276.471 103.162 277.744 104.48C279.204 105.992 280.807 107.366 282.286 108.86C283.079 109.661 283.007 109.705 282.247 110.562C280.387 112.662 278.541 114.775 276.69 116.883C275.899 117.784 275.897 117.789 274.998 116.935C272.965 115.004 271.106 112.832 268.685 111.394C265.75 109.65 262.677 108.299 259.042 108.695C256.951 108.923 255.169 109.565 253.529 110.814C252.233 111.802 250.851 112.677 249.517 113.716Z" fill="#038182"/>
<path fill-rule="evenodd" clip-rule="evenodd" d="M183.422 48.6828C184.421 48.3741 185.26 48.3797 186.086 48.3336C189.399 48.1483 192.716 48.0193 196.028 47.8001C196.841 47.7461 197.233 47.9525 197.381 48.7598C197.873 51.434 198.11 54.1267 198.118 56.845C198.12 57.3946 197.774 57.55 197.41 57.7547C195.263 58.959 195.324 58.9313 196.35 61.0838C200.436 69.658 205.289 77.8087 210.219 85.9043C213.547 91.3692 217.201 96.6386 220.955 101.828C225.692 108.376 230.735 114.679 236.188 120.646C237.603 122.195 239.109 123.662 240.898 124.817C243.416 126.444 246.19 127.112 249.135 127.175C252.054 127.237 254.9 126.8 257.694 125.916C261.297 124.777 264.879 123.57 268.592 122.781C270.406 122.396 272.205 122.359 274.022 122.415C275.188 122.451 276.348 122.622 277.513 122.71C278.029 122.75 278.304 122.928 278.172 123.498C278.099 123.815 278.094 124.149 278.011 124.463C276.317 130.833 273.765 136.825 270.047 142.284C266.297 147.792 262.024 152.897 257.105 157.367C251.639 162.334 246.291 167.426 240.889 172.461C238.542 174.649 236.355 177.057 234.398 179.622C232.812 181.702 231.016 183.623 229.625 185.85C227.915 188.587 226.473 191.458 225.249 194.449C224.639 195.941 224.179 197.519 223.18 198.836C223.076 198.974 223.026 199.179 223.204 199.335C223.232 199.359 223.308 199.381 223.312 199.374C223.38 199.261 223.494 199.144 223.494 199.027C223.502 195.915 224.853 193.154 225.87 190.332C227.529 185.731 230.207 181.651 232.892 177.599C233.662 176.437 234.669 175.433 235.562 174.352C240.153 168.795 245.038 163.506 250.209 158.487C254.953 153.884 259.237 148.872 263.287 143.671C266.37 139.713 268.715 135.285 270.628 130.643C270.874 130.048 270.949 129.381 271.093 128.745C271.211 128.223 270.951 128.053 270.478 128.14C269.974 128.233 269.466 128.321 268.976 128.465C264.899 129.66 260.805 130.796 256.793 132.206C252.589 133.681 248.373 133.427 244.1 132.412C240.573 131.574 237.656 129.799 235.037 127.373C229.275 122.033 224.547 115.824 219.974 109.493C212.932 99.7426 206.672 89.4961 201.09 78.8484C197.729 72.4372 194.921 65.7621 192.228 59.0436C192.019 58.5232 191.8 58.0071 191.612 57.4795C191.277 56.5415 191.31 56.4902 192.352 56.4194C193.145 56.3657 193.931 56.2897 194.719 56.1739C195.538 56.0541 195.851 55.6002 195.869 54.8606C195.902 53.5049 195.953 52.1473 195.912 50.7932C195.88 49.7551 195.596 49.5027 194.558 49.4467C192.69 49.346 190.821 49.2578 188.953 49.215C187.174 49.1749 185.405 49.0574 183.422 48.6828Z" fill="#070606"/>
<path fill-rule="evenodd" clip-rule="evenodd" d="M168.139 45.4231C166.439 45.5281 164.83 44.932 163.164 44.7724C162.049 44.6654 160.941 44.4778 159.826 44.3659C156.987 44.0809 154.522 45.2246 152.105 46.4763C151.252 46.9183 151.045 47.8613 150.755 48.695C150.495 49.4431 150.365 50.2462 150.033 50.9578C149.107 52.9401 147.831 53.4299 145.983 53.1478C145.113 53.0152 144.237 52.7723 143.423 52.4366C137.727 50.0882 131.992 47.8304 126.557 44.8925C124.265 43.654 122.19 42.2042 120.679 40.0356C119.535 38.3938 118.857 36.6972 119.635 34.6691C119.984 33.757 120.223 32.8049 120.619 31.9021C121.145 30.7044 120.88 29.7423 119.914 28.8925C118.231 27.4127 116.216 26.7943 114.03 26.6356C109.563 26.3121 105.32 27.1734 101.162 28.8128C96.9919 30.4568 92.8155 32.0755 88.7152 33.8917C84.7613 35.6433 80.5903 36.3154 76.2753 36.0972C74.7824 36.0218 73.2977 35.8352 71.8113 35.7052C68.6862 35.432 65.6783 35.8997 62.959 37.6526C61.734 38.4422 60.6054 39.3157 59.5854 40.3621C54.3993 45.6838 49.3261 51.1144 43.9915 56.2927C40.2016 59.9717 36.2098 63.4361 32.5469 67.2498C28.002 71.9814 24.2969 77.2633 21.7198 83.312C20.4451 86.3035 19.8711 89.4734 19.3777 92.662C19.1276 94.278 18.8475 95.8898 18.6319 97.5101C18.4874 98.5969 18.0128 99.5573 17.6225 100.559C17.3075 100.553 17.4178 100.299 17.4296 100.17C17.8522 95.5626 17.9747 90.9268 18.63 86.3437C19.0881 83.1399 20.1811 80.0964 21.5326 77.1737C24.4908 70.7754 28.8156 65.3438 33.6834 60.3064C34.8841 59.0639 35.8853 57.6174 37.1498 56.45C43.5547 50.5362 48.9555 43.7024 54.8298 37.3034C56.8934 35.0555 59.1411 33.0336 61.9045 31.6434C62.754 31.2158 63.6291 30.9565 64.5484 30.7672C67.5803 30.1435 70.6199 29.7518 73.7262 30.1294C76.618 30.4809 79.5133 30.3647 82.4008 30.025C82.6756 29.9928 82.9593 29.9497 83.2144 29.8489C85.7329 28.8556 88.2419 27.8389 90.7617 26.8489C95.7105 24.9051 100.609 22.7604 105.848 21.7352C109.007 21.1171 112.297 20.8627 115.479 21.4041C119.239 22.0436 122.67 23.6346 124.831 26.9862C126.067 28.9037 126.676 30.9858 125.285 33.2844C123.289 36.5846 123.597 37.0625 126.353 39.7272C127.09 40.4401 127.952 41.0042 128.833 41.5473C134.017 44.7431 139.597 47.1494 145.079 49.7535C145.289 49.8535 145.502 49.9543 145.721 50.0319C146.874 50.4394 147.443 50.2037 147.975 49.1061C148.056 48.9382 148.134 48.7667 148.194 48.5907C149.295 45.351 151.777 43.8179 154.95 43.214C158.84 42.4734 162.561 43.3608 166.23 44.5535C166.89 44.7685 167.516 45.093 168.158 45.3655C168.158 45.3648 168.139 45.4231 168.139 45.4231Z" fill="#070606"/>
<path fill-rule="evenodd" clip-rule="evenodd" d="M109.241 182.872C107.813 179.188 107.653 175.297 107.487 171.43C107.291 166.867 108.259 162.411 109.03 157.945C109.253 156.655 109.521 155.374 109.748 154.086C109.962 152.872 109.943 152.847 108.822 153.178C105.211 154.243 101.493 154.59 97.762 154.873C96.429 154.974 95.1392 154.777 93.8901 154.396C91.0188 153.52 88.2695 152.37 85.8876 150.477C85.0092 149.779 84.0846 149.151 83.0689 148.653C81.1596 147.718 79.1842 147.408 77.0899 147.851C76.5452 147.966 75.9778 148.005 75.4193 148.019C71.2347 148.123 67.4072 149.739 63.4596 150.84C61.6158 151.354 59.8003 151.969 57.9562 152.484C53.8928 153.617 49.7691 154.367 45.5276 154.32C39.9981 154.258 35.0569 152.525 30.8151 148.986C29.2616 147.69 28.2301 145.924 27.4319 144.059C26.8069 142.598 26.2382 141.103 25.9228 139.548C25.3423 136.685 23.7621 134.414 21.8791 132.297C20.8819 131.176 19.7105 130.266 18.5309 129.337C15.8909 127.258 13.2421 125.14 11.6514 122.061C10.7739 120.363 9.92838 118.641 9.63743 116.718C9.31521 114.587 10.2131 112.99 11.8735 111.763C12.228 111.502 12.675 111.333 13.3293 111.389C12.7484 112.123 12.0016 112.45 11.5523 113.119C11.0425 113.877 10.8256 114.666 10.9826 115.497C11.2061 116.679 11.5694 117.81 12.1773 118.902C14.1386 122.424 17.1219 124.815 20.505 126.812C23.0235 128.299 25.2014 130.192 27.1281 132.385C27.5958 132.917 27.9644 133.506 28.2636 134.144C29.4735 136.722 30.7779 139.257 31.6873 141.968C32.2652 143.691 33.5021 144.899 34.9986 145.823C37.7953 147.548 40.8285 148.428 44.1482 148.495C47.5356 148.564 50.868 148.249 54.1738 147.58C56.514 147.107 58.733 146.218 61.0023 145.5C64.9647 144.246 68.9469 143.044 73.0571 142.356C75.3248 141.976 77.6307 141.863 79.9106 141.981C82.2244 142.101 84.3562 143.039 86.3059 144.279C87.8423 145.256 89.3494 146.294 90.7795 147.419C92.7388 148.961 95.0128 149.555 97.4 149.839C99.4959 150.089 101.585 150.07 103.672 149.597C106.189 149.026 108.779 149.009 111.34 148.848C112.574 148.771 113.837 149.136 115.084 149.32C115.626 149.4 115.591 149.721 115.407 150.138C114.918 151.249 114.451 152.37 113.992 153.495C111.829 158.808 110.658 164.375 109.735 170.011C109.034 174.294 109.156 178.572 109.667 182.855C109.52 182.733 109.379 182.77 109.241 182.872Z" fill="#070606"/>
<path fill-rule="evenodd" clip-rule="evenodd" d="M118.407 191.188C120.543 193.54 122.658 195.91 124.82 198.238C127.594 201.226 130.147 204.398 132.429 207.764C133.985 210.058 134.495 212.615 133.362 215.342C132.57 217.247 131.553 219.031 130.622 220.862C129.108 223.84 128.033 226.964 127.532 230.268C127.285 231.892 127.386 233.524 127.586 235.157C128.27 240.756 129.986 246.076 131.667 251.433C133.3 256.637 134.882 261.862 136.423 267.097C137.902 272.123 139.796 276.984 142.503 281.515C143.721 283.555 145.27 285.265 146.908 286.935C148.09 288.14 149.164 289.409 149.729 291.061C150.162 292.329 150.303 293.614 150.215 294.92C150.128 296.229 150.13 297.536 150.113 298.845C150.096 300.209 150.742 301.105 151.949 301.71C154.039 302.757 156.274 303.164 158.567 303.357C159.446 303.431 160.327 303.483 161.448 303.835C158.262 304.138 155.353 304.762 152.442 304.16C150.239 303.704 148.33 302.665 147.408 300.4C147.21 299.915 147.182 299.404 147.157 298.887C147.091 297.533 146.905 296.181 146.858 294.834C146.803 293.259 146.069 292.076 145.123 290.974C144.456 290.196 143.705 289.482 142.935 288.803C139.125 285.444 136.222 281.45 134.181 276.786C131.177 269.919 128.969 262.801 127.063 255.564C126.389 253.004 125.228 250.573 124.513 248.006C123.333 243.772 122.163 239.537 122.065 235.099C121.995 231.943 122.349 228.829 123.366 225.843C124.561 222.331 126.369 219.115 128.538 216.11C129.534 214.73 129.963 213.211 129.973 211.524C129.978 210.698 129.777 209.971 129.396 209.253C127.351 205.408 124.862 201.842 122.476 198.213C120.989 195.951 119.292 193.821 118.237 191.296C118.356 191.359 118.409 191.318 118.407 191.188Z" fill="#070606"/>
<path fill-rule="evenodd" clip-rule="evenodd" d="M236.459 272.065C234.791 271.357 233.536 270.075 232.772 268.558C232.043 267.111 232.152 265.4 232.56 263.76C233.165 261.327 234.33 259.139 235.518 256.982C236.976 254.336 237.651 251.573 237.732 248.558C237.839 244.549 238.057 240.528 239.609 236.731C240.989 233.352 243.578 231.565 247.09 230.931C248.516 230.674 249.971 230.709 251.396 230.407C253.34 229.996 254.891 229.251 255.952 227.352C257.171 225.173 258.65 223.101 260.603 221.464C261.494 220.716 262.456 220.052 263.399 219.367C263.72 219.135 264.097 219.136 264.531 219.271C263.67 220.624 262.462 221.686 261.687 223.084C261.05 224.233 260.475 225.383 260.113 226.653C259.716 228.045 259.126 229.369 258.502 230.676C257.861 232.018 256.933 233.065 255.622 233.818C253.982 234.759 252.245 235.382 250.404 235.764C249.492 235.953 248.602 236.251 247.689 236.428C246.281 236.7 245.603 237.688 245.06 238.88C244.269 240.616 244.155 242.488 243.885 244.331C243.541 246.686 243.163 249.037 242.85 251.397C242.528 253.831 241.388 255.899 240.066 257.896C238.804 259.801 237.492 261.674 236.21 263.565C234.685 265.813 234.343 268.208 236.019 270.603C236.286 270.984 236.513 271.393 236.758 271.789C236.658 271.881 236.558 271.973 236.459 272.065Z" fill="#070606"/>
<path fill-rule="evenodd" clip-rule="evenodd" d="M208.717 253.529C208.823 253.7 208.878 253.753 208.867 253.777C207.488 256.942 206.482 260.256 205.165 263.434C203.309 267.914 201.363 272.364 199.419 276.811C197.909 280.262 196.963 283.956 195.682 287.512C194.121 291.845 191.496 295.448 187.647 297.99C182.233 301.565 176.34 304.13 170.048 305.747C169.915 305.781 169.774 305.785 169.615 305.806C169.735 305.202 170.277 305.029 170.664 304.731C174.627 301.687 178.838 298.99 182.824 295.971C186.502 293.185 188.944 289.639 190.397 285.309C191.762 281.24 193.144 277.176 195 273.291C195.748 271.724 196.674 270.267 197.592 268.806C200.126 264.777 202.31 260.518 205.375 256.834C206.378 255.629 207.447 254.493 208.717 253.529Z" fill="#070606"/>
<path fill-rule="evenodd" clip-rule="evenodd" d="M202.136 253.812C202.948 249.714 205.257 246.606 208.521 244.119C210.162 242.868 211.921 241.819 213.744 240.858C216.47 239.421 219.203 237.988 221.824 236.364C224.655 234.61 226.844 232.263 227.702 228.986C228.32 226.63 228.402 224.173 228.08 221.745C227.501 217.386 227.284 212.995 226.898 208.62C226.764 207.095 226.912 205.542 226.971 204.003C226.997 203.303 227.17 202.612 227.436 201.963C227.523 201.75 227.513 201.329 227.891 201.394C228.156 201.439 228.1 201.771 228.138 201.987C228.745 205.4 229.813 208.68 230.916 211.957C232.064 215.366 232.995 218.871 233.573 222.397C234.295 226.792 233.805 231.094 231.194 235.023C229.634 237.37 227.52 238.956 225.32 240.535C223.674 241.717 221.868 242.585 219.972 243.263C216.452 244.521 212.995 245.933 209.617 247.529C207.136 248.701 204.961 250.29 203.362 252.571C203.068 252.99 202.821 253.442 202.552 253.878C202.415 253.855 202.275 253.834 202.136 253.812Z" fill="#070606"/>
<path fill-rule="evenodd" clip-rule="evenodd" d="M240.193 272.686C242.388 269.556 244.458 266.33 246.805 263.319C250.604 258.444 254.238 253.46 257.29 248.091C260.067 243.204 262.149 238.026 263.253 232.463C263.806 229.678 264.632 226.938 265.666 224.278C265.767 224.018 265.879 223.76 266.01 223.514C266.068 223.405 266.187 223.33 266.278 223.239C266.364 223.343 266.473 223.436 266.528 223.554C266.584 223.677 266.604 223.825 266.612 223.964C266.847 228.022 267.213 232.075 266.905 236.149C266.522 241.219 264.769 245.903 262.714 250.46C261.723 252.66 260.004 254.481 258.538 256.415C253.596 262.933 247.325 268.013 240.73 272.733C240.628 272.806 240.491 272.83 240.371 272.876C240.311 272.813 240.252 272.749 240.193 272.686Z" fill="#070606"/>
<path fill-rule="evenodd" clip-rule="evenodd" d="M109.241 182.872C109.379 182.769 109.52 182.733 109.668 182.855C109.84 183.206 109.765 183.574 109.756 183.988C109.334 183.699 109.349 183.256 109.241 182.872Z" fill="#038182"/>
<path fill-rule="evenodd" clip-rule="evenodd" d="M168.139 45.4231C168.139 45.4231 168.158 45.3645 168.158 45.3655C168.62 45.3569 168.998 45.5741 169.513 45.9503C169.183 45.5949 168.941 45.7818 168.736 45.7272C168.515 45.6683 168.168 45.8569 168.139 45.4231Z" fill="#038182"/>
<path fill-rule="evenodd" clip-rule="evenodd" d="M202.136 253.812C202.275 253.833 202.414 253.855 202.553 253.878C202.478 254.116 202.432 254.459 202.129 254.393C201.972 254.358 201.975 254.013 202.136 253.812Z" fill="#038182"/>
<path fill-rule="evenodd" clip-rule="evenodd" d="M118.236 191.296C118.102 191.128 117.964 190.96 118.051 190.72C118.26 190.808 118.47 190.896 118.407 191.189C118.409 191.318 118.356 191.359 118.236 191.296Z" fill="#038182"/>
<path fill-rule="evenodd" clip-rule="evenodd" d="M236.963 272.026C237.153 272.119 237.278 272.251 237.085 272.435C237.004 272.513 236.907 272.436 236.898 272.31C236.92 272.215 236.942 272.121 236.963 272.026Z" fill="#038182"/>
<path fill-rule="evenodd" clip-rule="evenodd" d="M236.963 272.026C236.942 272.121 236.92 272.215 236.898 272.31C236.752 272.228 236.605 272.147 236.458 272.065C236.559 271.973 236.658 271.881 236.758 271.789C236.827 271.868 236.895 271.947 236.963 272.026Z" fill="#070606"/>
<path fill-rule="evenodd" clip-rule="evenodd" d="M122.191 112.069C121.199 112.838 120.243 113.58 119.286 114.322C115.538 117.228 111.722 120.035 107.646 122.474C101.676 126.047 95.3356 128.665 88.4788 129.954C86.5304 130.32 84.5631 130.557 82.5818 130.699C81.1734 130.801 79.7631 130.847 78.3574 130.841C73.7196 130.82 69.1157 130.419 64.598 129.305C61.0648 128.434 57.6988 127.158 54.6958 125.051C52.6111 123.587 50.8686 121.792 49.5936 119.578C48.3666 117.448 47.6748 115.14 47.4332 112.694C47.2699 111.043 47.3005 109.396 47.4319 107.745C47.4911 107.003 47.4134 106.257 47.4177 105.511C47.4467 100.369 47.4605 95.2273 47.4164 90.0856C47.4029 88.513 47.4898 86.9674 47.8495 85.4399C48.5417 82.5001 49.9244 79.9342 52.0144 77.7477C54.6211 75.0206 57.8301 73.2732 61.34 72.0294C64.681 70.8452 68.1405 70.2027 71.6595 69.8335C74.6237 69.5224 77.5971 69.4072 80.5698 69.5099C84.3574 69.6406 88.046 70.3759 91.622 71.643C97.4009 73.6912 102.439 76.9457 106.958 81.0522C109.939 83.7606 112.602 86.7531 115.02 89.9687C115.06 90.0217 115.099 90.075 115.14 90.1267C115.406 90.4598 115.416 90.4716 115.744 90.1942C117.612 88.614 119.467 87.0181 121.34 85.4448C125.004 82.3681 128.691 79.3197 132.736 76.74C137.195 73.8966 141.959 71.7645 147.127 70.5878C149.623 70.0197 152.149 69.6807 154.71 69.5553C156.387 69.4731 158.063 69.453 159.734 69.5103C164.415 69.6702 169.047 70.2136 173.546 71.594C176.946 72.6373 180.131 74.101 182.85 76.4556C186.495 79.6136 188.365 83.6234 188.662 88.4156C188.773 90.1994 188.713 91.9817 188.72 93.7639C188.741 99.2147 188.74 104.666 188.72 110.116C188.713 112.058 188.524 113.982 187.964 115.86C187.193 118.443 185.888 120.707 184.03 122.66C181.509 125.31 178.408 127.031 175.012 128.258C170.876 129.751 166.579 130.429 162.202 130.692C160.618 130.788 159.033 130.861 157.449 130.847C152.21 130.802 147.175 129.748 142.351 127.693C137.33 125.555 132.876 122.549 128.836 118.905C127.197 117.426 125.665 115.842 124.145 114.243C123.491 113.557 122.881 112.836 122.191 112.069ZM52.2056 101.287C51.1533 102.472 50.112 104.605 49.8319 106.101C49.6291 107.183 49.3171 108.25 49.2954 109.359C49.2757 110.373 49.3036 111.389 49.3086 112.404C49.3135 113.383 49.5399 114.323 49.7871 115.263C50.1857 116.78 50.9799 118.103 51.7909 119.417C53.1423 121.608 54.8334 123.471 57.0744 124.783C57.7014 125.15 58.3643 125.456 59.0107 125.79C59.1479 125.86 59.2882 125.926 59.4198 126.006C59.5689 126.096 59.5288 126.229 59.4715 126.353C59.4076 126.492 59.3102 126.558 59.1585 126.469C59.1397 126.458 59.1186 126.45 59.0986 126.441C57.7521 125.824 56.4086 125.179 55.2649 124.237C53.814 123.042 52.5268 121.673 51.521 120.068C51.1346 119.451 50.7584 118.827 50.4033 118.192C49.51 116.593 48.932 114.88 48.7856 113.056C48.598 110.718 48.6835 108.393 49.2411 106.089C49.509 104.982 49.898 103.946 50.4345 102.952C51.0131 101.879 51.7119 100.9 52.5452 100.007C53.3375 99.1587 54.1563 98.3504 55.0825 97.6427C57.8982 95.4922 61.0928 94.1503 64.4736 93.2117C68.573 92.0735 72.775 91.6252 77.0106 91.491C78.7043 91.4373 80.4029 91.4399 82.1012 91.5387C83.552 91.6229 85.0025 91.6901 86.4501 91.8326C89.4817 92.1308 92.4735 92.6521 95.4321 93.3739C99.8526 94.4525 104.13 95.9701 108.348 97.6516C111.707 98.9902 115.108 100.224 118.425 101.665C122.536 103.45 126.754 104.94 131.037 106.248C134.452 107.291 137.913 108.171 141.387 108.989C143.169 109.408 144.993 109.608 146.806 109.853C148.445 110.074 150.081 110.319 151.741 110.335C152.578 110.344 153.418 110.342 154.252 110.405C155.312 110.485 156.367 110.433 157.426 110.427C159.391 110.414 161.351 110.292 163.304 110.102C165.213 109.917 167.103 109.574 168.973 109.141C170.283 108.838 171.611 108.621 172.902 108.234C175.136 107.565 177.195 106.506 179.213 105.37C180.896 104.424 182.371 103.201 183.676 101.776C184.507 100.868 185.157 99.84 185.793 98.7855C186.233 98.0575 186.633 97.3113 186.942 96.5392C187.591 94.9182 187.933 93.2024 188.132 91.4702C188.299 90.0204 188.169 88.5673 187.985 87.1231C187.417 82.6535 185.313 79.06 181.782 76.289C179.283 74.3281 176.436 73.0543 173.422 72.1285C168.924 70.7465 164.291 70.2175 159.612 70.05C158.007 69.9924 156.397 70.0174 154.786 70.0984C152.247 70.2261 149.743 70.5589 147.269 71.1187C142.161 72.2743 137.464 74.3995 133.052 77.1905C129.558 79.4003 126.366 82.011 123.173 84.6174C121.398 86.0662 119.686 87.5927 117.943 89.0801C117.272 89.6521 116.593 90.2146 115.915 90.7781C115.469 91.149 115.467 91.1464 115.8 91.6529C115.849 91.7266 115.898 91.8 115.947 91.8731C117.325 93.9239 118.703 95.9744 120.081 98.0252C120.228 98.2451 120.382 98.4616 120.515 98.6897C120.584 98.8069 120.78 98.9639 120.58 99.0751C120.403 99.1735 120.339 98.9385 120.26 98.8224C119.605 97.8541 118.938 96.893 118.309 95.9079C117.193 94.1619 116.057 92.4247 114.865 90.7359C112.444 87.3044 109.628 84.2007 106.505 81.383C102.426 77.703 97.919 74.6993 92.7914 72.6699C88.8211 71.0983 84.7017 70.2159 80.4371 70.0546C78.2119 69.9704 75.9866 70.0481 73.7633 70.2097C70.371 70.4558 67.0188 70.9249 63.7393 71.8517C59.9421 72.9247 56.4027 74.5015 53.4197 77.1527C51.125 79.1923 49.5179 81.6782 48.6398 84.6292C48.1273 86.3519 47.9522 88.1049 47.967 89.9029C48.0059 94.6473 47.9802 99.3927 47.9802 104.137C47.9802 104.371 47.9802 104.604 47.9802 104.837C48.2869 104.218 48.4795 103.571 48.7507 102.958C50.0399 100.045 52.1091 97.7609 54.6102 95.8487C55.2122 95.3885 55.8942 95.0291 56.5544 94.649C57.6626 94.0111 58.775 93.3782 59.9408 92.8486C63.2851 91.3297 66.8263 90.576 70.45 90.1178C72.3566 89.8769 74.2719 89.7676 76.1864 89.6686C78.2125 89.5639 80.2446 89.5142 82.2737 89.6383C83.6603 89.7232 85.045 89.8285 86.4277 89.9809C90.2706 90.4045 94.0708 91.0499 97.7929 92.1035C100.8 92.9549 103.816 93.7547 106.707 95.0031C114.421 98.3336 122.25 101.373 130.22 104.042C130.68 104.196 130.978 104.136 131.332 103.822C133.363 102.025 135.425 100.263 137.584 98.6193C140.593 96.3275 143.749 94.2803 147.269 92.8443C150.466 91.54 153.778 90.8008 157.245 90.8413C158.369 90.8544 159.492 90.8465 160.617 90.8962C162.4 90.9752 164.177 91.1026 165.949 91.3241C168.798 91.6802 171.599 92.2539 174.324 93.1758C177.211 94.152 179.862 95.5544 182.207 97.5091C182.758 97.9689 183.26 98.4893 183.81 99.006C185.065 97.2462 185.989 95.3836 186.386 93.29C186.691 91.6819 186.787 90.0638 186.674 88.4202C186.512 86.0685 185.898 83.8393 184.809 81.7829C183.772 79.8246 182.365 78.123 180.549 76.7873C178.977 75.6318 177.291 74.6822 175.539 73.84C175.32 73.735 175.1 73.6336 174.883 73.5247C174.774 73.4697 174.717 73.3792 174.774 73.2554C174.829 73.136 174.885 72.9971 175.055 73.0333C175.161 73.0556 175.262 73.1063 175.362 73.1524C177.329 74.0611 179.219 75.0989 180.959 76.4016C182.813 77.7899 184.247 79.5464 185.329 81.5653C186.239 83.262 186.827 85.0933 187.084 87.0158C187.581 90.7366 187.241 94.3113 185.319 97.6368C184.342 99.3279 183.166 100.836 181.666 102.098C178.879 104.444 175.641 105.911 172.187 106.925C167.783 108.218 163.26 108.748 158.682 108.808C156.413 108.837 154.145 108.833 151.875 108.718C148.967 108.572 146.077 108.28 143.205 107.832C140.002 107.333 136.849 106.594 133.73 105.71C130.164 104.699 126.697 103.39 123.205 102.162C118.358 100.458 113.626 98.4511 108.862 96.5309C106.902 95.741 105.022 94.7658 102.981 94.1596C99.219 93.0418 95.4597 91.9221 91.5842 91.2553C88.2994 90.6902 84.995 90.2942 81.6635 90.1507C78.6378 90.0204 75.619 90.2192 72.6051 90.4315C70.9822 90.5457 69.3642 90.7975 67.759 91.0749C65.673 91.4353 63.6284 91.9649 61.6437 92.7318C60.0932 93.3308 58.6329 94.0987 57.1903 94.906C55.5867 95.8036 54.0958 96.8746 52.7789 98.1539C50.9983 99.8831 49.6716 101.927 48.8468 104.278C48.4838 105.314 48.178 106.383 48.0358 107.458C47.7695 109.469 47.7827 111.499 48.0905 113.518C48.7293 117.716 50.6876 121.153 53.9924 123.822C56.269 125.661 58.8504 126.93 61.6052 127.862C65.9386 129.328 70.4246 129.967 74.9696 130.211C77.4993 130.346 80.0336 130.336 82.567 130.153C84.5256 130.011 86.4708 129.775 88.3969 129.413C93.2117 128.511 97.8104 126.939 102.211 124.796C106.786 122.568 111.046 119.823 115.117 116.783C117.29 115.16 119.424 113.486 121.582 111.843C122.165 111.399 122.093 111.468 121.683 110.945C119.227 107.816 117.008 104.528 115.011 101.089C114.878 100.86 114.701 100.732 114.469 100.64C112.172 99.734 109.873 98.8312 107.583 97.9097C107.239 97.7714 106.992 97.7724 106.686 98.0203C105.88 98.6719 105.043 99.2848 104.211 99.9026C101.09 102.219 97.8722 104.379 94.3588 106.071C90.6666 107.85 86.7802 108.924 82.7052 109.315C80.8607 109.492 79.0114 109.504 77.158 109.471C73.8486 109.413 70.5629 109.156 67.3041 108.56C64.208 107.994 61.1961 107.171 58.3653 105.763C56.9997 105.084 55.6987 104.301 54.4973 103.358C53.7002 102.732 52.9484 102.056 52.2056 101.287ZM115.347 101.009C115.521 101.441 115.699 101.74 115.889 102.034C116.436 102.889 116.974 103.749 117.526 104.601C119.545 107.712 121.704 110.718 124.198 113.472C127.107 116.685 130.238 119.652 133.768 122.185C137.008 124.51 140.459 126.44 144.199 127.842C148.535 129.468 153.021 130.289 157.649 130.297C159.764 130.3 161.876 130.203 163.985 130.008C167.265 129.702 170.494 129.153 173.636 128.145C176.705 127.16 179.585 125.805 182.08 123.727C185.007 121.291 186.934 118.237 187.74 114.492C188.048 113.063 188.166 111.614 188.175 110.164C188.202 105.265 188.186 100.365 188.183 95.4652C188.182 95.2467 188.225 95.0209 188.126 94.7625C188.068 94.9041 188.014 95.0002 187.99 95.1035C187.654 96.5122 187.03 97.7994 186.332 99.0551C185.501 100.549 184.474 101.913 183.211 103.045C181.773 104.335 180.252 105.531 178.495 106.405C176.478 107.407 174.482 108.466 172.272 108.963C169.048 109.688 165.834 110.464 162.515 110.697C159.696 110.895 156.884 111.053 154.055 110.94C151.918 110.855 149.78 110.841 147.657 110.52C145.064 110.128 142.452 109.861 139.904 109.197C137.802 108.649 135.683 108.165 133.595 107.562C131.232 106.88 128.872 106.187 126.546 105.376C123.755 104.403 120.989 103.376 118.274 102.205C117.347 101.805 116.434 101.365 115.347 101.009ZM106.4 97.5407C106.278 97.4614 106.247 97.4324 106.21 97.4183C101.697 95.69 97.1179 94.1898 92.3652 93.2535C88.7023 92.5317 85.0015 92.1555 81.2778 92.0337C79.6281 91.9797 77.9733 91.9781 76.3191 92.0781C74.912 92.1634 73.5047 92.2249 72.1019 92.3734C69.1582 92.6847 66.2565 93.207 63.4276 94.0941C60.0494 95.1532 56.9138 96.6626 54.2534 99.0521C53.6501 99.5942 53.1015 100.183 52.5986 100.839C52.8056 101.07 52.9698 101.277 53.1584 101.459C54.4019 102.659 55.7688 103.697 57.2719 104.551C60.6113 106.45 64.2337 107.503 67.9963 108.134C70.4319 108.544 72.8856 108.762 75.3534 108.869C77.9989 108.984 80.6366 108.986 83.2736 108.697C87.6922 108.211 91.8281 106.853 95.7352 104.755C99.0686 102.965 102.139 100.781 105.15 98.5067C105.551 98.2039 105.945 97.8919 106.4 97.5407ZM131.545 104.365C131.618 104.536 131.738 104.537 131.84 104.569C133.606 105.125 135.393 105.604 137.19 106.052C142.708 107.427 148.319 108.118 153.994 108.263C157.474 108.352 160.956 108.313 164.424 107.893C168.026 107.457 171.555 106.74 174.938 105.391C177.457 104.388 179.785 103.067 181.804 101.241C182.399 100.702 182.992 100.151 183.422 99.4582C181.057 96.8759 178.162 95.1914 174.967 93.9917C170.717 92.3951 166.274 91.7691 161.77 91.4893C160.229 91.3935 158.686 91.4001 157.142 91.3886C154.605 91.3702 152.14 91.7898 149.725 92.5396C146.605 93.5089 143.755 95.0314 141.042 96.8265C138.295 98.6436 135.754 100.726 133.259 102.867C132.68 103.365 132.107 103.873 131.545 104.365Z" fill="#130E09"/>
<path fill-rule="evenodd" clip-rule="evenodd" d="M52.2055 101.287C52.9481 102.056 53.7001 102.732 54.4966 103.357C55.698 104.3 56.999 105.083 58.3646 105.762C61.1958 107.17 64.2073 107.993 67.3035 108.559C70.5622 109.155 73.8482 109.412 77.1573 109.47C79.0107 109.503 80.8604 109.491 82.7045 109.314C86.7795 108.923 90.6659 107.849 94.3581 106.07C97.8715 104.378 101.089 102.217 104.21 99.9015C105.043 99.2838 105.88 98.6709 106.685 98.0192C106.992 97.7711 107.238 97.7704 107.582 97.9086C109.873 98.8302 112.171 99.733 114.468 100.639C114.7 100.731 114.877 100.859 115.01 101.088C117.007 104.527 119.227 107.815 121.682 110.944C122.092 111.467 122.165 111.398 121.581 111.842C119.423 113.485 117.289 115.159 115.116 116.782C111.045 119.822 106.785 122.567 102.21 124.795C97.8096 126.939 93.211 128.51 88.3962 129.412C86.4701 129.773 84.5249 130.009 82.5663 130.152C80.0329 130.335 77.4986 130.345 74.9689 130.21C70.424 129.967 65.9379 129.327 61.6045 127.861C58.8494 126.929 56.2683 125.66 53.9917 123.821C50.6869 121.152 48.7289 117.715 48.0898 113.517C47.7823 111.497 47.7692 109.469 48.0351 107.457C48.1773 106.382 48.4831 105.312 48.8461 104.277C49.6709 101.926 50.9976 99.8821 52.7782 98.1529C54.0951 96.8739 55.586 95.8025 57.1896 94.905C58.6318 94.0976 60.0925 93.3298 61.6431 92.7308C63.6277 91.9639 65.6719 91.4343 67.7583 91.0739C69.3635 90.7965 70.9815 90.5447 72.6044 90.4305C75.6183 90.2185 78.6371 90.0197 81.6628 90.1497C84.9943 90.2932 88.2987 90.6892 91.5835 91.2543C95.4593 91.9211 99.2183 93.0408 102.981 94.1585C105.021 94.7648 106.901 95.74 108.861 96.5299C113.626 98.4497 118.357 100.457 123.204 102.161C126.696 103.389 130.163 104.698 133.729 105.709C136.849 106.593 140.001 107.332 143.204 107.831C146.077 108.28 148.966 108.571 151.874 108.717C154.144 108.832 156.412 108.836 158.681 108.807C163.259 108.747 167.782 108.217 172.187 106.924C175.641 105.909 178.878 104.442 181.665 102.097C183.165 100.835 184.341 99.3269 185.318 97.6358C187.24 94.3103 187.58 90.7356 187.083 87.0147C186.826 85.0923 186.238 83.261 185.328 81.5643C184.246 79.5454 182.812 77.7888 180.958 76.4006C179.218 75.0979 177.328 74.0601 175.361 73.1514C175.261 73.1053 175.16 73.0549 175.054 73.0322C174.884 72.996 174.829 73.1349 174.773 73.2544C174.716 73.3782 174.773 73.4687 174.882 73.5236C175.099 73.6326 175.319 73.7339 175.538 73.8389C177.29 74.6812 178.976 75.6307 180.548 76.7863C182.365 78.1219 183.771 79.8235 184.808 81.7819C185.898 83.8383 186.512 86.0675 186.673 88.4191C186.786 90.0628 186.69 91.6808 186.385 93.289C185.988 95.3826 185.064 97.2451 183.81 99.005C183.259 98.4882 182.758 97.9679 182.206 97.5081C179.861 95.5534 177.21 94.1513 174.323 93.1748C171.598 92.2529 168.798 91.6788 165.948 91.3231C164.177 91.1019 162.4 90.9742 160.616 90.8952C159.491 90.8455 158.368 90.8534 157.244 90.8402C153.777 90.7997 150.465 91.5393 147.268 92.8433C143.749 94.2793 140.592 96.3265 137.583 98.6183C135.424 100.262 133.363 102.024 131.332 103.821C130.977 104.134 130.679 104.195 130.22 104.041C122.249 101.372 114.42 98.3326 106.706 95.0021C103.815 93.754 100.799 92.9539 97.7922 92.1024C94.0701 91.0489 90.2699 90.4035 86.427 89.9799C85.0443 89.8275 83.66 89.7222 82.273 89.6372C80.2439 89.5132 78.2122 89.5629 76.1857 89.6675C74.2712 89.7666 72.3559 89.8759 70.4493 90.1168C66.8259 90.5749 63.2844 91.3286 59.9401 92.8476C58.7743 93.3772 57.6619 94.0098 56.5537 94.6479C55.8938 95.0281 55.2115 95.3875 54.6095 95.8476C52.1081 97.7602 50.0392 100.044 48.75 102.957C48.4788 103.57 48.2862 104.217 47.9795 104.836C47.9795 104.603 47.9795 104.369 47.9795 104.136C47.9795 99.3914 48.0052 94.6463 47.9663 89.9019C47.9515 88.1038 48.1266 86.3509 48.6391 84.6282C49.5172 81.6772 51.1243 79.1913 53.419 77.1516C56.402 74.5002 59.9418 72.9236 63.7386 71.8507C67.0181 70.9238 70.3703 70.4548 73.7627 70.2086C75.9859 70.0473 78.2112 69.9693 80.4365 70.0536C84.701 70.2152 88.8204 71.0973 92.7907 72.6689C97.9179 74.6986 102.425 77.702 106.504 81.382C109.627 84.1997 112.443 87.3034 114.865 90.7349C116.056 92.4237 117.193 94.1608 118.308 95.9069C118.937 96.892 119.604 97.853 120.259 98.8213C120.338 98.9375 120.402 99.1725 120.579 99.0741C120.779 98.9629 120.584 98.8059 120.515 98.6887C120.381 98.4609 120.227 98.244 120.08 98.0242C118.702 95.9734 117.324 93.9229 115.946 91.872C115.897 91.7987 115.848 91.7253 115.8 91.6519C115.466 91.1453 115.468 91.148 115.914 90.777C116.592 90.2136 117.271 89.6511 117.942 89.079C119.686 87.5917 121.397 86.0655 123.172 84.6164C126.365 82.01 129.557 79.399 133.051 77.1895C137.464 74.3985 142.16 72.2733 147.268 71.1177C149.742 70.5578 152.247 70.2251 154.786 70.0974C156.396 70.0164 158.006 69.9914 159.611 70.049C164.29 70.2165 168.923 70.7454 173.422 72.1275C176.435 73.0533 179.283 74.327 181.781 76.288C185.313 79.059 187.417 82.6524 187.985 87.122C188.168 88.5662 188.298 90.0194 188.132 91.4692C187.933 93.2014 187.59 94.9172 186.941 96.5381C186.632 97.3103 186.232 98.0561 185.793 98.7845C185.156 99.839 184.507 100.867 183.675 101.775C182.371 103.201 180.896 104.422 179.213 105.369C177.194 106.506 175.135 107.564 172.901 108.233C171.61 108.62 170.282 108.836 168.973 109.14C167.102 109.573 165.212 109.915 163.303 110.101C161.35 110.291 159.39 110.413 157.425 110.426C156.367 110.432 155.311 110.484 154.251 110.404C153.417 110.341 152.577 110.343 151.74 110.334C150.081 110.318 148.444 110.073 146.806 109.852C144.992 109.607 143.168 109.407 141.387 108.988C137.912 108.17 134.452 107.29 131.036 106.247C126.752 104.939 122.535 103.449 118.424 101.664C115.107 100.223 111.706 98.9895 108.348 97.6506C104.129 95.9691 99.8519 94.4514 95.4313 93.3729C92.4728 92.6511 89.481 92.1298 86.4493 91.8316C85.0022 91.6894 83.5514 91.6222 82.1005 91.5377C80.4019 91.4389 78.7036 91.4363 77.0099 91.4899C72.7743 91.6239 68.5719 92.0725 64.4729 93.2106C61.0924 94.1493 57.8975 95.4912 55.0818 97.6417C54.1556 98.3494 53.3368 99.1574 52.5445 100.006C51.7112 100.899 51.0124 101.878 50.4338 102.951C49.8973 103.945 49.5083 104.981 49.2404 106.088C48.6829 108.392 48.5969 110.717 48.7849 113.055C48.9313 114.879 49.509 116.592 50.4026 118.191C50.7577 118.826 51.1339 119.45 51.5203 120.067C52.5261 121.672 53.8133 123.041 55.2642 124.236C56.4079 125.178 57.7514 125.824 59.0979 126.44C59.118 126.449 59.139 126.457 59.1578 126.468C59.3095 126.557 59.4066 126.491 59.4708 126.352C59.5281 126.228 59.5679 126.095 59.4191 126.005C59.2875 125.925 59.1473 125.86 59.01 125.789C58.3639 125.455 57.7007 125.149 57.0737 124.782C54.8327 123.47 53.1416 121.607 51.7902 119.416C50.9792 118.102 50.185 116.779 49.7864 115.262C49.5396 114.322 49.3128 113.382 49.3079 112.403C49.3029 111.388 49.275 110.372 49.2947 109.357C49.3164 108.249 49.6288 107.182 49.8312 106.1C50.1119 104.605 51.1533 102.472 52.2055 101.287Z" fill="#F17E00"/>
<path fill-rule="evenodd" clip-rule="evenodd" d="M115.347 101.009C116.434 101.366 117.347 101.805 118.275 102.205C120.989 103.376 123.756 104.403 126.547 105.376C128.873 106.187 131.233 106.88 133.596 107.562C135.683 108.165 137.803 108.649 139.905 109.197C142.453 109.86 145.064 110.128 147.657 110.52C149.78 110.841 151.918 110.856 154.056 110.94C156.884 111.053 159.696 110.895 162.516 110.697C165.835 110.464 169.048 109.688 172.272 108.963C174.483 108.466 176.478 107.407 178.495 106.405C180.253 105.532 181.774 104.335 183.212 103.045C184.475 101.913 185.502 100.549 186.333 99.055C187.031 97.7994 187.655 96.5118 187.99 95.1035C188.015 95.0001 188.069 94.904 188.127 94.7625C188.225 95.0209 188.183 95.247 188.183 95.4652C188.186 100.365 188.203 105.264 188.175 110.164C188.167 111.614 188.049 113.063 187.741 114.492C186.934 118.237 185.007 121.291 182.081 123.727C179.586 125.805 176.706 127.16 173.637 128.145C170.494 129.153 167.265 129.702 163.985 130.008C161.877 130.203 159.765 130.3 157.65 130.297C153.021 130.289 148.536 129.468 144.199 127.842C140.46 126.44 137.009 124.51 133.768 122.185C130.239 119.652 127.108 116.685 124.198 113.472C121.705 110.718 119.546 107.712 117.527 104.601C116.974 103.749 116.437 102.888 115.889 102.034C115.699 101.739 115.521 101.441 115.347 101.009Z" fill="#F17E00"/>
</svg>
